<?xml version="1.0" standalone="no"?>
<!DOCTYPE svg PUBLIC "-//W3C//DTD SVG 20010904//EN"
 "http://www.w3.org/TR/2001/REC-SVG-20010904/DTD/svg10.dtd">
<svg version="1.0" xmlns="http://www.w3.org/2000/svg"
 width="765.000000pt" height="765.000000pt" viewBox="0 0 765.000000 765.000000"
 preserveAspectRatio="xMidYMid meet">
<metadata>
Created by potrace 1.14, written by Peter Selinger 2001-2017
</metadata>
<g transform="translate(0.000000,765.000000) scale(0.100000,-0.100000)"
fill="#000000" stroke="none">
<path d="M875 7279 c-4 -6 -22 -9 -40 -8 -18 2 -44 -4 -59 -14 -14 -10 -26
-14 -26 -10 0 4 -16 -8 -35 -27 -42 -40 -71 -94 -81 -147 -3 -21 -10 -43 -15
-49 -5 -6 -14 -79 -21 -162 -9 -119 -9 -189 0 -319 7 -92 16 -170 20 -173 5
-3 14 -39 21 -80 7 -41 17 -79 21 -85 4 -5 11 -25 15 -42 3 -18 11 -33 16 -33
5 0 9 -8 9 -17 0 -10 6 -29 13 -43 7 -14 19 -44 26 -67 8 -24 17 -43 21 -43 4
0 11 -8 14 -17 7 -19 30 -58 81 -138 44 -69 162 -201 254 -284 45 -40 81 -70
81 -66 0 3 27 -14 59 -39 33 -25 64 -46 70 -46 17 0 81 -66 81 -84 0 -9 4 -24
9 -34 4 -9 16 -35 26 -57 11 -22 29 -54 42 -72 13 -17 23 -35 23 -38 0 -4 16
-22 35 -41 l35 -34 0 -99 c0 -56 4 -103 10 -106 6 -3 10 -18 10 -33 0 -15 7
-37 15 -49 13 -18 12 -22 -5 -38 -11 -10 -20 -15 -20 -11 0 4 -13 -2 -29 -13
-16 -12 -34 -21 -40 -21 -6 0 -11 -4 -11 -10 0 -5 -7 -10 -16 -10 -8 0 -52
-37 -97 -82 -93 -94 -162 -212 -173 -298 -4 -28 -11 -53 -15 -56 -12 -7 -12
-274 0 -274 4 0 11 -20 14 -45 8 -58 78 -205 98 -205 5 0 9 -5 9 -12 0 -7 17
-29 37 -50 32 -33 36 -41 26 -57 -14 -22 -16 -289 -3 -306 4 -5 10 -27 14 -47
4 -20 10 -38 14 -40 4 -2 17 -23 29 -48 48 -98 175 -180 283 -184 l45 -1 3
-46 c3 -41 0 -48 -25 -65 -15 -10 -31 -19 -34 -19 -9 0 -309 -301 -309 -309 0
-4 -14 -24 -31 -45 -32 -40 -54 -77 -89 -151 -45 -94 -50 -106 -61 -155 -6
-27 -16 -61 -22 -74 -18 -36 -17 -1013 1 -1018 6 -3 12 -10 12 -17 0 -18 60
-71 105 -92 42 -20 159 -26 220 -12 l30 7 0 -188 c0 -125 4 -193 11 -202 7 -8
15 -28 18 -46 4 -17 14 -34 22 -37 8 -3 14 -11 14 -19 0 -15 80 -96 80 -82 1
6 10 -1 21 -15 12 -14 22 -23 23 -22 1 4 44 -12 74 -27 8 -3 928 -4 2045 -1
l2032 5 43 24 c23 12 42 27 42 32 0 5 6 9 13 9 7 0 25 12 39 27 30 34 88 120
88 133 0 5 5 21 11 37 10 28 15 311 5 321 -3 3 -6 16 -6 29 0 20 4 23 28 17
15 -3 34 -8 42 -11 35 -13 137 -1 186 22 55 25 136 108 128 130 -3 7 0 16 6
20 15 9 14 874 -2 892 -6 7 -8 24 -6 38 3 14 1 28 -3 31 -5 3 -9 16 -9 29 0
13 -4 26 -9 29 -4 3 -11 25 -15 48 -4 23 -12 48 -18 55 -6 7 -8 13 -4 13 3 0
-5 18 -19 40 -14 22 -23 40 -19 40 3 0 -4 14 -16 30 -12 17 -18 30 -14 30 3 0
-6 16 -20 35 -15 19 -24 35 -20 35 4 0 -5 9 -20 21 -14 11 -26 26 -26 32 0 16
-292 307 -307 307 -7 0 -16 6 -20 13 -4 8 -16 16 -26 20 -15 6 -18 16 -15 54
l3 48 65 7 c87 8 155 44 224 118 31 34 55 64 54 68 -1 6 7 29 29 82 3 8 5 25
4 37 -1 11 3 24 8 28 14 8 15 261 1 270 -6 3 -10 22 -10 41 0 26 10 47 37 80
21 25 38 48 38 52 1 4 7 18 15 32 8 14 15 27 15 30 1 3 6 16 12 30 19 43 26
65 24 74 -1 5 1 16 5 25 12 25 30 202 22 207 -5 3 -8 25 -8 49 0 24 -5 47 -11
51 -6 3 -9 17 -6 30 2 14 0 27 -4 30 -5 3 -9 11 -9 19 0 8 -4 24 -9 37 -5 13
-9 27 -9 31 0 5 -11 23 -24 40 -13 18 -30 45 -38 61 -14 28 -176 186 -190 186
-4 0 -28 12 -54 26 l-46 26 20 28 c11 15 17 30 13 33 -3 4 0 14 8 23 10 12 15
53 18 130 3 109 4 113 32 140 16 15 29 34 29 41 0 7 4 13 8 13 9 0 48 62 44
72 -1 4 7 12 18 18 11 6 18 15 15 19 -3 5 2 22 10 37 8 16 15 39 15 51 0 12 4
24 10 28 5 3 7 12 4 19 -3 8 5 20 19 28 48 25 127 81 127 90 0 4 7 8 16 8 21
0 272 252 309 310 16 25 42 62 58 83 16 20 26 37 22 37 -3 0 3 14 15 30 12 17
19 30 16 30 -4 0 5 18 19 40 14 22 23 40 20 40 -3 0 2 12 12 27 10 15 18 31
18 37 1 6 4 19 8 29 17 43 20 53 18 64 -1 6 3 14 9 18 5 3 10 12 10 20 0 8 5
26 11 42 7 15 11 40 10 55 -1 14 2 29 8 32 5 4 13 42 17 86 3 44 12 84 18 88
17 11 15 344 -2 355 -8 6 -12 24 -11 47 2 22 0 42 -4 46 -4 4 -7 18 -7 30 0
13 -5 26 -11 29 -5 4 -9 17 -8 28 1 12 -3 35 -9 50 -7 16 -12 31 -12 35 0 13
-82 92 -95 92 -7 0 -15 5 -17 11 -2 6 -26 13 -53 16 -28 3 -55 10 -62 15 -7 6
-14 5 -18 -2 -4 -6 -21 -10 -39 -9 -17 2 -42 -4 -56 -11 -14 -8 -27 -15 -30
-15 -16 -2 -60 -39 -60 -51 0 -8 -4 -14 -9 -14 -20 0 -48 -78 -54 -153 -13
-156 -78 -309 -180 -420 -7 -7 -17 -22 -23 -32 -6 -11 -16 -20 -22 -20 -5 0
-22 -12 -36 -27 -14 -16 -27 -28 -30 -28 -2 0 -31 -18 -63 -39 -59 -39 -128
-74 -149 -76 -6 0 -24 -9 -40 -19 -34 -23 -125 -28 -131 -8 -3 6 -12 12 -21
12 -9 0 -30 8 -47 17 -22 12 -65 17 -156 21 -130 4 -143 2 -233 -44 -29 -15
-30 -15 -100 53 -126 122 -129 124 -189 132 -34 4 -60 4 -66 -2 -17 -17 -59
-10 -93 17 -19 14 -40 26 -46 26 -7 0 -12 3 -12 8 0 4 -10 12 -22 17 -19 8
-24 20 -28 65 -6 61 -14 80 -36 80 -8 0 -14 4 -14 8 0 12 -123 62 -152 62 -10
0 -18 4 -18 10 0 5 -16 12 -35 16 -19 3 -35 10 -35 14 0 5 -31 14 -70 20 -39
6 -70 16 -70 21 0 5 -15 9 -34 9 -27 0 -39 7 -56 31 -12 16 -20 33 -17 35 11
11 -101 173 -119 174 -6 0 -18 8 -27 18 -10 10 -41 29 -70 43 -28 13 -55 27
-58 32 -20 27 -312 24 -345 -4 -8 -6 -17 -9 -21 -5 -3 3 -21 -5 -38 -19 -18
-13 -35 -22 -38 -18 -9 8 -147 -136 -147 -152 0 -8 -4 -15 -9 -15 -5 0 -12
-13 -16 -30 -4 -16 -10 -30 -15 -30 -5 0 -10 -10 -12 -22 -2 -16 -10 -23 -25
-23 -12 0 -25 -4 -29 -8 -4 -4 -16 -7 -26 -7 -10 0 -26 -4 -36 -9 -9 -5 -42
-14 -72 -21 -30 -7 -60 -17 -66 -22 -7 -5 -16 -8 -20 -6 -5 1 -26 -6 -47 -16
-21 -10 -40 -16 -43 -13 -4 3 -24 -5 -46 -19 -22 -14 -42 -23 -45 -20 -3 3
-20 -5 -37 -17 -17 -12 -31 -20 -31 -19 0 7 -61 -23 -91 -45 -17 -13 -33 -20
-37 -17 -3 3 -11 -4 -17 -16 -6 -12 -14 -19 -17 -16 -4 3 -21 -6 -40 -20 -18
-14 -33 -22 -33 -18 0 3 -15 -7 -34 -22 -59 -51 -76 -64 -83 -64 -4 0 -16 -9
-28 -19 -158 -148 -161 -150 -185 -144 -14 3 -31 11 -39 17 -22 17 -303 15
-325 -3 -9 -8 -19 -11 -23 -8 -3 4 -19 -3 -34 -14 -16 -11 -29 -18 -29 -14 0
3 -9 0 -21 -8 -16 -12 -29 -12 -62 -4 -23 5 -46 13 -52 17 -5 4 -25 11 -43 15
-31 6 -162 70 -172 83 -3 4 -17 13 -31 21 -43 22 -236 221 -215 221 4 0 -5 18
-19 40 -14 22 -23 40 -19 40 3 0 -4 13 -16 29 -11 16 -20 33 -19 38 1 4 0 15
-3 23 -14 39 -29 122 -27 147 1 15 -1 35 -3 43 -3 8 -11 34 -17 58 -11 38 -51
88 -104 130 -9 7 -38 15 -64 19 -27 3 -56 10 -65 14 -10 6 -19 5 -23 -2z"/>
</g>
</svg>
